<svg xmlns="http://www.w3.org/2000/svg" fill-rule="evenodd" clip-rule="evenodd" stroke-linecap="round" stroke-linejoin="round"><defs><style>:root svg:not(:target){display:none}</style></defs><svg id="plus" viewBox="0 0 8 8" fill="none" stroke="#242424" stroke-width=".8"><path d="M4 1v6M1 4h6"/></svg><svg id="cross" viewBox="0 0 8 8" fill="none" stroke="#242424" stroke-width=".8"><path d="m1 1 6 6m0-6L1 7"/></svg><svg id="checkbox" viewBox="0 0 8 8" fill="none" stroke="#6edd7f" stroke-width=".8"><path d="m1.5 4 2 2L7 2.5"/></svg><svg id="checkbox-main" viewBox="0 0 8 8" fill="none" stroke="#5297ff" stroke-width=".9"><path d="m1.5 4 2 2L7 2.5"/></svg><svg id="burger" viewBox="0 0 8 8" fill="none" stroke="#242424" stroke-width=".8"><path d="M1 1h6M1 4h6M1 7h6"/></svg><svg id="arrow-simple" viewBox="0 0 8 8" fill="none" stroke="#242424" stroke-width=".8"><path d="m1 3 3 3 3-3"/></svg><svg id="arrow-link" viewBox="0 0 8 8" fill="none" stroke="#242424" stroke-width=".8"><path d="M4.5 1H7v2.5M7 1 3.5 4.5m0-3H1V7h5.5V4.5"/></svg><svg id="arrow-diagonal" viewBox="0 0 8 8" fill="none" stroke="#242424" stroke-width=".8"><path d="m1 7 6-6M1 1h6v6"/></svg><svg id="arrow-bold" viewBox="0 0 8 8" fill="#242424" stroke="#242424" stroke-width="1"><path d="M5 2H3v3H2l2 2 2-2H5V2Z"/></svg><svg id="arrow" viewBox="0 0 8 8" fill="none" stroke="#242424" stroke-width="1"><path d="M6 4H1m3-2 2 2-2 2"/></svg><svg id="icon-heart" viewBox="0 0 96 96" fill="none" stroke="#fff" stroke-width="8"><path d="M85 17c-9-9-24-9-33 0l-4 4-4-4c-9-9-24-9-33 0s-9 24 0 33l37 37 37-37c9-9 9-24 0-33Z"/></svg><svg id="icon-people" viewBox="0 0 96 96" fill="none" stroke="#fff" stroke-width="8"><path d="M68 84v-8c0-9-7-16-16-16H20c-9 0-16 7-16 16v8m88 0v-8c0-7-5-13-12-15M64 13c7 2 12 8 12 15s-5 13-12 15M52 28c0 9-7 16-16 16s-16-7-16-16 7-16 16-16 16 7 16 16Z"/></svg><svg id="icon-stack" viewBox="0 0 96 96" fill="none" stroke="#fff" stroke-width="8"><path d="m4 70 44 22 44-22M4 48l44 22 44-22M48 4 4 26l44 22 44-22L48 4Z"/></svg><svg id="icon-map" viewBox="0 0 96 96" fill="none" stroke="#fff" stroke-width="8"><path d="M4 24v64l28-16 32 16 28-16V8L64 24 32 8 4 24ZM32 8v64m32-48v64"/></svg><svg id="email" viewBox="0 0 96 96" fill="#242424"><path d="M88 70V26L61 48l27 22ZM8 74h80L58.5 50c-8 6.5-13 6.5-21 0L8 74Zm80-52H8l32 26c6 5 10 5 16 0l32-26ZM8 26v44l27-22L8 26Z"/></svg><svg id="tel" viewBox="0 0 96 96" fill="#242424"><path d="M7 39c-3 7-4 20-4 27l26-3c0-6-4-17-4-17s5-7 23-7 23 7 23 7-4 11-4 17l26 3c0-7-1-20-4-27 0 0-12-9-41-9S7 39 7 39Z" transform="rotate(240 47 48)"/></svg><svg id="telegram" viewBox="0 0 96 96" fill="#242424"><path d="M80 28c.5-5-1-7-7-5-18 6-60 25-60 25-4.5 2-4 5 0 6l10.5 3c3 1 5.5 1 8.5-1l27-18c3-2 5-1 3 1L42.5 58C38 63 41 64 45 67l18 12c6 4 8.5 1 10-6 0 0 6-32 7-45Z"/></svg><svg id="vkontakte" viewBox="0 0 96 96" fill="#242424"><path d="M21 23H8c1 30 14 50 45 50V55c12 2 18 9 21 18h14c-3-13-13-21-21-25 8-4 16-14 18-25H72c-2 9-11 19-19 20V23H40v35c-12-3-19-18-19-35Z"/></svg><svg id="discord" viewBox="0 0 96 96" fill="#242424"><path d="m38 20 2 4c6-1 11-1 17 0l2-4c4 .5 10 2 15 5 9 14 13 27 11 42-6 4-12 7-18 9-2.5-3-4-6-4-6 4-1 7-3 7-3l-2-2c-12 6-27 6-39 0l-2 2s3 2 7 3c0 0-1.5 3-4 6-6-2-12-5-18-9-2-15 2-28 11-42 5-3 11-4.5 15-5Zm5 30.5c0-5.5-4-7.5-7-7.5s-7 2-7 7.5 4 7.5 7 7.5 7-2 7-7.5Zm25 0c0-5.5-4-7.5-7-7.5s-7 2-7 7.5 4 7.5 7 7.5 7-2 7-7.5Z"/></svg><svg id="boosty" viewBox="0 0 96 96" fill="#242424"><path d="M35 15h17L40 60h8l-8 21c-15 0-20-11-16-25l11-41Zm5 66 20-30h-8.5L59 31c12 1 19 12 15 25-4 15-20 25-34 25Z"/></svg><svg id="star" viewBox="0 0 24 24" fill="#FDB811"><path d="M12 17.27 18.18 21l-1.64-7.03L22 9.24l-7.19-.61L12 2 9.19 8.63 2 9.24l5.46 4.73L5.82 21 12 17.27z"/></svg><svg id="logo" viewBox="0 0 72 72" fill="none" stroke="#242424"><path d="M69 36c0 18-15 33-33 33S3 54 3 36 18 3 36 3s33 15 33 33ZM4 44l16-16 16 16 16-16 16 16" stroke-width="5"/></svg></svg>